<?xml version="1.0" encoding="utf-8"?>
<!-- Generator: Adobe Illustrator 20.1.0, SVG Export Plug-In . SVG Version: 6.00 Build 0)  -->
<svg version="1.1" id="Layer_1" xmlns:sketch="http://www.bohemiancoding.com/sketch/ns"
	 xmlns="http://www.w3.org/2000/svg" xmlns:xlink="http://www.w3.org/1999/xlink" x="0px" y="0px" viewBox="0 0 72 72"
	 style="enable-background:new 0 0 72 72;" xml:space="preserve">
<style type="text/css">
	.st0{fill:#58595B;}
</style>
<title>Hamburger Round</title>
<desc>Created with Sketch.</desc>
<g sketch:type="MSPage">
	<g sketch:type="MSArtboardGroup">
		<path sketch:type="MSShapeGroup" class="st0" d="M22.7,28.8c0-1,0.8-1.8,1.8-1.8h19c1,0,1.8,0.8,1.8,1.8c0,1-0.8,1.8-1.8,1.8H24.5
			C23.5,30.6,22.7,29.9,22.7,28.8L22.7,28.8z M22.7,36c0-1,0.8-1.8,1.8-1.8h19c1,0,1.8,0.8,1.8,1.8c0,1-0.8,1.8-1.8,1.8H24.5
			C23.5,37.8,22.7,37.1,22.7,36L22.7,36z M22.7,43.2c0-1,0.8-1.8,1.8-1.8h19c1,0,1.8,0.8,1.8,1.8S44.4,45,43.4,45H24.5
			C23.5,45.1,22.7,44.3,22.7,43.2L22.7,43.2z"/>
	</g>
</g>
</svg>
